<?xml version="1.0" encoding="iso-8859-1"?>
<!-- Generator: Adobe Illustrator 19.0.0, SVG Export Plug-In . SVG Version: 6.00 Build 0)  -->
<svg version="1.1" id="Capa_1" xmlns="http://www.w3.org/2000/svg" xmlns:xlink="http://www.w3.org/1999/xlink" x="0px" y="0px"
	 viewBox="0 0 512 512" style="enable-background:new 0 0 512 512;" xml:space="preserve">
<g>
	<g>
		<path d="M457.997,477.201c-6.167-4.303-14.614-10.195-30.076-10.195c-15.461,0-23.908,5.893-30.075,10.195
			c-4.724,3.295-6.879,4.799-12.911,4.799c-1.182,0-2.212-0.06-3.144-0.178l46.434-100.425L271,311.221v157.985
			c-4.144-1.321-9.051-2.2-15.006-2.2c-5.949,0-10.852,0.877-14.994,2.196V311.221L83.774,381.397l46.434,100.423
			c-0.936,0.119-1.968,0.179-3.155,0.179c-6.029,0-8.185-1.504-12.907-4.799c-6.167-4.303-14.613-10.196-30.074-10.196
			s-23.906,5.893-30.073,10.196c-4.722,3.296-6.877,4.8-12.907,4.8v30c15.461,0,23.907-5.893,30.074-10.196
			c4.722-3.295,6.877-4.799,12.906-4.799c6.03,0,8.185,1.504,12.908,4.799c6.167,4.303,14.612,10.196,30.073,10.196
			s23.907-5.893,30.074-10.196c4.722-3.295,6.877-4.799,12.906-4.799c6.03,0,8.185,1.504,12.908,4.799
			c6.167,4.303,14.613,10.196,30.074,10.196c15.46,0,23.906-5.893,30.073-10.196c4.722-3.295,6.877-4.799,12.906-4.799
			s8.184,1.504,12.906,4.799c6.167,4.303,14.612,10.196,30.073,10.196s23.907-5.893,30.074-10.196
			c4.723-3.295,6.878-4.799,12.908-4.799c6.029,0,8.185,1.504,12.907,4.799c6.167,4.303,14.613,10.196,30.074,10.196
			c15.462,0,23.909-5.893,30.076-10.195c4.724-3.295,6.879-4.799,12.91-4.799s8.187,1.504,12.911,4.799
			C447,506.107,455.446,512,470.908,512v-30C464.876,482,462.721,480.496,457.997,477.201z"/>
	</g>
</g>
<g>
	<g>
		<path d="M414.017,221.021l2.8-14.627H271v-36.483h103.864l-2.069-10.811c-4.23-22.097-4.23-44.795,0-66.892l2.069-10.811H271
			V45.695h56.55l-7.429-22.848L327.55,0H271h-15h-15v81.398H137.136l2.069,10.811c4.23,22.097,4.23,44.795,0,66.892l-2.069,10.811
			H241v36.483H95.184l2.8,14.627c5.723,29.895,5.723,60.605,0,90.501l-2.8,14.626h38.767l109.822-49.018L256,271.673l12.228,5.458
			l109.822,49.018h38.767l-2.8-14.627C408.294,281.627,408.294,250.917,414.017,221.021z"/>
	</g>
</g>
<g>
</g>
<g>
</g>
<g>
</g>
<g>
</g>
<g>
</g>
<g>
</g>
<g>
</g>
<g>
</g>
<g>
</g>
<g>
</g>
<g>
</g>
<g>
</g>
<g>
</g>
<g>
</g>
<g>
</g>
</svg>
